<svg width="700px" height="700px" id="Layer_1" data-name="Layer 1" xmlns="http://www.w3.org/2000/svg" xmlns:xlink="http://www.w3.org/1999/xlink" viewBox="0 0 600 192"><defs><style>.cls-1{fill:none;}.cls-2{fill:#fff;}.cls-3{clip-path:url(#clip-path);}</style><clipPath id="clip-path"><rect class="cls-1" x="486.31" y="101.11" width="106.79" height="77.49"/></clipPath></defs><title>190405_Electronics</title><path id="Rectangle_95" data-name="Rectangle 95" class="cls-2" d="M490.34,26.92H589a9,9,0,0,1,9,9V192H481.36V35.89A9,9,0,0,1,490.34,26.92Z"/><g id="Group_7" data-name="Group 7"><g class="cls-3"><g id="Repeat_Grid_1" data-name="Repeat Grid 1"><rect id="Rectangle_86" data-name="Rectangle 86" x="486.31" y="101.11" width="71.8" height="29.04"/><rect id="Rectangle_86-2" data-name="Rectangle 86-2" x="565.27" y="101.11" width="71.8" height="29.04"/><rect id="Rectangle_86-3" data-name="Rectangle 86-3" x="486.31" y="136.1" width="71.8" height="29.04"/><rect id="Rectangle_86-4" data-name="Rectangle 86-4" x="565.27" y="136.1" width="71.8" height="29.04"/><rect id="Rectangle_86-5" data-name="Rectangle 86-5" x="486.31" y="171.09" width="71.8" height="29.04"/><rect id="Rectangle_86-6" data-name="Rectangle 86-6" x="565.27" y="171.09" width="71.8" height="29.04"/></g></g><rect id="Rectangle_87" data-name="Rectangle 87" x="486.31" y="178.54" width="106.54" height="12.99"/><rect id="Rectangle_88" data-name="Rectangle 88" x="486.31" y="37.68" width="106.54" height="59.65"/></g><path id="Rectangle_5" data-name="Rectangle 5" class="cls-2" d="M464.32,148.93h9.87A27.82,27.82,0,0,1,502,176.75V192H436.5V176.75A27.83,27.83,0,0,1,464.32,148.93Z"/><path id="Rectangle_93" data-name="Rectangle 93" class="cls-2" d="M116.21,0H440.09a9,9,0,0,1,9,9V192H107.23V9A9,9,0,0,1,116.21,0Z"/><g id="Group_3" data-name="Group 3"><rect id="Rectangle_81" data-name="Rectangle 81" x="119.79" y="13.46" width="316.95" height="91.05"/><rect id="Rectangle_83" data-name="Rectangle 83" x="119.79" y="122.56" width="89.31" height="48.81"/><rect id="Rectangle_83-2" data-name="Rectangle 83-2" x="233.61" y="122.56" width="89.31" height="48.81"/><rect id="Rectangle_83-3" data-name="Rectangle 83-3" x="347.44" y="122.56" width="89.31" height="48.81"/></g><path id="Rectangle_94" data-name="Rectangle 94" class="cls-2" d="M31,63.7H87.5a9,9,0,0,1,9,9V192H22V72.67A9,9,0,0,1,31,63.7Z"/><rect id="Rectangle_84" data-name="Rectangle 84" x="27.38" y="77.68" width="63.29" height="108.99"/><rect id="Rectangle_85" data-name="Rectangle 85" x="27.38" y="174.06" width="63.04" height="12.99"/></svg>